<svg width="22" height="23" viewBox="0 0 22 23" fill="none" xmlns="http://www.w3.org/2000/svg">
<path d="M9.96875 2.23438C6.0625 2.97656 2.9375 6.10156 2.19531 9.96875C0.789062 17.2734 7.3125 22.7031 12.2734 21.9609C13.9141 21.6875 14.6953 19.8125 13.9531 18.3672C13.0547 16.6094 14.3438 14.5391 16.3359 14.5391H19.4609C20.8281 14.5391 21.9609 13.3672 21.9609 11.9609C21.9609 5.82812 16.375 0.984375 9.96875 2.23438ZM5.75 14.5C5.04688 14.5 4.5 13.9531 4.5 13.25C4.5 12.5859 5.04688 12 5.71094 12C6.33594 12 6.96094 12.5859 6.96094 13.25C6.96094 13.9531 6.41406 14.5 5.75 14.5ZM7 9.5C6.29688 9.5 5.75 8.95312 5.75 8.25C5.75 7.58594 6.29688 7 7 7C7.66406 7 8.25 7.58594 8.25 8.25C8.25 8.95312 7.66406 9.5 7 9.5ZM12 7C11.2969 7 10.75 6.45312 10.75 5.75C10.75 5.08594 11.2969 4.53906 12 4.53906C12.6641 4.53906 13.25 5.08594 13.25 5.78906C13.25 6.45312 12.6641 7 12 7ZM17 9.5C16.2969 9.5 15.75 8.95312 15.75 8.25C15.75 7.58594 16.2969 7 17 7C17.6641 7 18.25 7.58594 18.25 8.25C18.25 8.95312 17.6641 9.5 17 9.5Z" fill="url(#paint0_linear_2270_11256)"/>
<defs>
<linearGradient id="paint0_linear_2270_11256" x1="2" y1="1.5" x2="25.0637" y2="6.08327" gradientUnits="userSpaceOnUse">
<stop offset="0.0001" stop-color="#FFAD02"/>
</linearGradient>
</defs>
</svg>
