<svg width="20" height="18" viewBox="0 0 20 18" fill="none" xmlns="http://www.w3.org/2000/svg">
<path d="M12.9688 12.75H14.4922C14.7266 12.75 15 12.5156 15 12.2812V7.00781C15 6.77344 14.7266 6.5 14.4922 6.5H12.9688C12.7344 6.5 12.5 6.77344 12.5 7.00781V12.2812C12.5 12.5156 12.7344 12.75 12.9688 12.75ZM16.7188 12.75H18.2422C18.4766 12.75 18.75 12.5156 18.75 12.2812V3.25781C18.75 3.02344 18.4766 2.75 18.2422 2.75H16.7188C16.4844 2.75 16.25 3.02344 16.25 3.25781V12.2812C16.25 12.5156 16.4844 12.75 16.7188 12.75ZM18.75 15.25H2.5V1.5C2.5 0.835938 1.91406 0.25 1.25 0.25C0.546875 0.25 0 0.835938 0 1.5V16.5C0 17.2031 0.546875 17.75 1.25 17.75H18.75C19.4141 17.75 20 17.2031 20 16.5C20 15.8359 19.4141 15.25 18.75 15.25ZM9.21875 12.75H10.7422C10.9766 12.75 11.25 12.5156 11.25 12.2812V4.50781C11.25 4.27344 10.9766 4 10.7422 4H9.21875C8.98438 4 8.75 4.27344 8.75 4.50781V12.2812C8.75 12.5156 8.98438 12.75 9.21875 12.75ZM5.46875 12.75H6.99219C7.22656 12.75 7.5 12.5156 7.5 12.2812V9.50781C7.5 9.27344 7.22656 9 6.99219 9H5.46875C5.23438 9 5 9.27344 5 9.50781V12.2812C5 12.5156 5.23438 12.75 5.46875 12.75Z" fill="url(#paint0_linear_2270_11509)"/>
<defs>
<linearGradient id="paint0_linear_2270_11509" x1="0" y1="-1.5" x2="23.0637" y2="3.08327" gradientUnits="userSpaceOnUse">
<stop offset="0.0001" stop-color="#FFAD02"/>
</linearGradient>
</defs>
</svg>
