<svg width="23" height="20" viewBox="0 0 23 20" fill="none" xmlns="http://www.w3.org/2000/svg">
<path d="M20.625 0H1.875C0.820312 0 0 0.859375 0 1.875V14.375C0 15.4297 0.820312 16.25 1.875 16.25H9.375L8.75 18.125H5.9375C5.39062 18.125 5 18.5547 5 19.0625C5 19.6094 5.39062 20 5.9375 20H16.5625C17.0703 20 17.5 19.6094 17.5 19.0625C17.5 18.5547 17.0703 18.125 16.5625 18.125H13.75L13.125 16.25H20.625C21.6406 16.25 22.5 15.4297 22.5 14.375V1.875C22.5 0.859375 21.6406 0 20.625 0ZM20 11.25H2.5V2.5H20V11.25Z" fill="url(#paint0_linear_2270_11565)"/>
<defs>
<linearGradient id="paint0_linear_2270_11565" x1="-0.5" y1="-0.5" x2="25.7022" y2="5.48801" gradientUnits="userSpaceOnUse">
<stop offset="0.0001" stop-color="#FFAD02"/>
</linearGradient>
</defs>
</svg>
