<svg width="26" height="20" viewBox="0 0 26 20" fill="none" xmlns="http://www.w3.org/2000/svg">
<path d="M17.9609 8.75C17.9609 8.28125 17.7656 7.77344 17.375 7.42187L10.5391 0.585937C10.2266 0.195312 9.71875 0 9.21094 0C8.74219 0 8.23438 0.195312 7.88281 0.585937L1.04688 7.42188C0.65625 7.77344 0.460938 8.28125 0.460938 8.75C0.460938 9.21875 0.65625 9.72656 1.04688 10.0781L7.88281 16.9141C8.23438 17.3047 8.74219 17.5 9.21094 17.5C9.71875 17.5 10.2266 17.3047 10.5781 16.9141L17.4141 10.0781C17.8047 9.76562 17.9609 9.25781 17.9609 8.75ZM4.25 9.6875C3.70313 9.6875 3.3125 9.29688 3.3125 8.78906C3.3125 8.32031 3.74219 7.89062 4.25 7.89062C4.71875 7.89062 5.1875 8.24219 5.1875 8.75C5.1875 9.29688 4.75781 9.6875 4.25 9.6875ZM9.25 14.6875C8.70312 14.6875 8.3125 14.2969 8.3125 13.7891C8.3125 13.3203 8.74219 12.8906 9.25 12.8906C9.71875 12.8906 10.1484 13.3203 10.1484 13.7891C10.1484 14.2969 9.75781 14.6875 9.25 14.6875ZM9.25 9.6875C8.70312 9.6875 8.3125 9.29688 8.3125 8.78906C8.3125 8.32031 8.74219 7.89062 9.25 7.89062C9.71875 7.89062 10.1875 8.24219 10.1875 8.75C10.1875 9.29688 9.75781 9.6875 9.25 9.6875ZM9.25 4.6875C8.70312 4.6875 8.3125 4.29688 8.3125 3.78906C8.3125 3.32031 8.74219 2.89062 9.25 2.89062C9.71875 2.89062 10.1484 3.32031 10.1484 3.78906C10.1484 4.29688 9.75781 4.6875 9.25 4.6875ZM14.25 9.6875C13.7031 9.6875 13.3125 9.29688 13.3125 8.78906C13.3125 8.32031 13.7422 7.89062 14.25 7.89062C14.7188 7.89062 15.1484 8.32031 15.1484 8.78906C15.1484 9.29688 14.7578 9.6875 14.25 9.6875ZM23.5859 7.5H18.9375C19.0938 7.92969 19.2109 8.35938 19.2109 8.78906C19.2109 9.57031 18.8984 10.3906 18.2734 11.0156L12.9609 16.3281V18.125C13 19.1797 13.8203 20 14.875 20H23.5859C24.6016 20 25.4219 19.1797 25.4219 18.1641V9.375C25.4609 8.35938 24.6406 7.5 23.5859 7.5ZM19.2109 14.6875C18.6641 14.6875 18.3125 14.2969 18.3125 13.7891C18.3125 13.3203 18.7031 12.8906 19.2109 12.8906C19.6797 12.8906 20.1094 13.3203 20.1094 13.7891C20.1094 14.2969 19.7578 14.6875 19.2109 14.6875Z" fill="url(#paint0_linear_2270_11551)"/>
<defs>
<linearGradient id="paint0_linear_2270_11551" x1="0.5" y1="-0.5" x2="28.7264" y2="6.51152" gradientUnits="userSpaceOnUse">
<stop offset="0.0001" stop-color="#FFAD02"/>
</linearGradient>
</defs>
</svg>
