<svg width="21" height="20" viewBox="0 0 21 20" fill="none" xmlns="http://www.w3.org/2000/svg">
<path d="M20.2109 10C20.2109 8.59375 19.4688 7.34375 18.375 6.64062C18.6484 5.35156 18.2969 3.94531 17.2812 2.92969C16.3047 1.95312 14.8984 1.5625 13.6094 1.83594C12.8672 0.742188 11.6562 0 10.2109 0C8.80469 0 7.55469 0.742188 6.8125 1.83594C5.5625 1.5625 4.15625 1.95312 3.14062 2.92969C2.16406 3.94531 1.77344 5.35156 2.04688 6.64062C0.953125 7.34375 0.210938 8.59375 0.210938 10C0.210938 11.4453 0.953125 12.6953 2.04688 13.3984C1.77344 14.6875 2.16406 16.0938 3.14062 17.0703C4.15625 18.0859 5.52344 18.4766 6.8125 18.2031C7.55469 19.2969 8.80469 20 10.2109 20C11.6562 20 12.8672 19.2969 13.6094 18.2031C14.8984 18.4766 16.3047 18.0859 17.2812 17.0703C18.2969 16.0938 18.6484 14.6875 18.375 13.3984C19.5078 12.6953 20.2109 11.4453 20.2109 10ZM13.0234 11.875C12.8281 12.8125 12.1641 13.4375 11.1484 13.6719V14.0625C11.1484 14.6094 10.7578 15 10.2109 15C9.70312 15 9.27344 14.6094 9.27344 14.0625V13.6328C8.92188 13.5547 8.57031 13.4375 8.21875 13.3203L8.02344 13.2422C7.55469 13.0859 7.28125 12.5391 7.47656 12.0312C7.63281 11.5625 8.17969 11.2891 8.6875 11.4844L8.84375 11.5625C9.19531 11.6797 9.58594 11.7969 9.89844 11.8359C10.5625 11.9531 11.1094 11.8359 11.1484 11.5625C11.1875 11.3672 11.1875 11.2891 9.97656 10.9375L9.70312 10.8594C9 10.625 7.125 10.0781 7.4375 8.16406C7.63281 7.22656 8.29688 6.60156 9.3125 6.36719V5.9375C9.3125 5.42969 9.70312 5 10.25 5C10.7578 5 11.1875 5.42969 11.1875 5.9375V6.40625C11.3828 6.44531 11.6562 6.52344 11.9297 6.60156C12.4375 6.79688 12.7109 7.30469 12.5156 7.8125C12.3594 8.32031 11.8125 8.55469 11.3438 8.39844C10.9922 8.28125 10.7578 8.20312 10.5625 8.16406C9.89844 8.08594 9.35156 8.20312 9.3125 8.47656C9.27344 8.63281 9.27344 8.75 10.25 9.0625L10.4844 9.10156C11.5 9.41406 13.3359 9.92188 13.0234 11.875Z" fill="url(#paint0_linear_2270_5966)"/>
<defs>
<linearGradient id="paint0_linear_2270_5966" x1="-1.5" y1="-0.5" x2="24.7022" y2="5.48801" gradientUnits="userSpaceOnUse">
<stop offset="0.0001" stop-color="#FFAD02"/>
</linearGradient>
</defs>
</svg>
