<svg width="26" height="22" viewBox="0 0 26 22" fill="none" xmlns="http://www.w3.org/2000/svg">
<path d="M19.5625 8.5H13.625V10.4922C13.625 11.9766 12.5312 13.3047 11.0859 13.4609C9.40625 13.6562 8 12.3281 8 10.6875V5.96094L7.02344 6.54688C5.30469 7.5625 4.25 9.4375 4.25 11.4688L1.125 13.2656C0.5 13.6172 0.304688 14.3984 0.65625 14.9844L3.78125 20.4141C4.13281 21 4.875 21.1953 5.5 20.8438L9.52344 18.5391H14.875C16.2422 18.5391 17.375 17.4062 17.375 16.0391C18.3906 16.0391 19.25 15.1797 19.25 14.1641V12.25H19.5625C20.0703 12.25 20.5 11.8594 20.5 11.3125V9.4375C20.5 8.92969 20.0703 8.5 19.5625 8.5ZM25.3047 7.05469L22.1797 1.625C21.8281 1.03906 21.0859 0.84375 20.5 1.19531L16.4375 3.5H14.0156C12.5312 3.5 11.0859 3.92969 9.79688 4.71094C9.44531 4.94531 9.25 5.33594 9.25 5.76562V10.6875C9.25 11.5859 9.91406 12.25 10.8125 12.25C11.6719 12.25 12.375 11.5859 12.375 10.6875V7.25L19.5625 7.25C20.7344 7.25 21.75 8.22656 21.75 9.4375V10.5312L24.875 8.73438C25.4609 8.42188 25.6562 7.64062 25.3047 7.05469Z" fill="url(#paint0_linear_2270_10212)"/>
<defs>
<linearGradient id="paint0_linear_2270_10212" x1="0.5" y1="0.5" x2="28.7264" y2="7.51152" gradientUnits="userSpaceOnUse">
<stop offset="0.0001" stop-color="#FFAD02"/>
</linearGradient>
</defs>
</svg>
