<svg width="24" height="18" viewBox="0 0 24 18" fill="none" xmlns="http://www.w3.org/2000/svg">
<path d="M23.5 4.3125C23.5 5.21094 22.7969 5.875 21.9375 5.875C21.8984 5.875 21.8984 5.875 21.8984 5.875L19.9062 16.7344C19.8281 17.3203 19.2812 17.75 18.6953 17.75H5.76562C5.17969 17.75 4.63281 17.3203 4.55469 16.7344L2.5625 5.875C2.5625 5.875 2.5625 5.875 2.52344 5.875C1.66406 5.875 0.960938 5.21094 0.960938 4.3125C0.960938 3.45312 1.66406 2.75 2.52344 2.75C3.34375 2.75 4.08594 3.45312 4.08594 4.3125C4.08594 4.66406 3.92969 4.97656 3.73438 5.25L7.25 8.0625C7.875 8.53125 8.77344 8.33594 9.125 7.63281L11.3906 3.14062C10.9609 2.86719 10.6484 2.39844 10.6484 1.8125C10.6484 0.953125 11.3516 0.25 12.25 0.25C13.1094 0.25 13.7734 0.953125 13.7734 1.8125C13.7734 2.39844 13.4609 2.86719 12.9922 3.14062L15.2578 7.63281C15.6094 8.33594 16.5469 8.53125 17.1719 8.0625L20.6484 5.25C20.4922 4.97656 20.375 4.66406 20.375 4.3125C20.375 3.45312 21.0391 2.75 21.9375 2.75C22.7969 2.75 23.5 3.45312 23.5 4.3125Z" fill="url(#paint0_linear_2270_11495)"/>
<defs>
<linearGradient id="paint0_linear_2270_11495" x1="0.5" y1="-1.5" x2="26.7022" y2="4.48801" gradientUnits="userSpaceOnUse">
<stop offset="0.0001" stop-color="#FFAD02"/>
</linearGradient>
</defs>
</svg>
