<svg width="21" height="18" viewBox="0 0 21 18" fill="none" xmlns="http://www.w3.org/2000/svg">
<path d="M5.10938 6.8125L2.96094 9.23438L2.0625 8.33594C1.71094 7.98438 1.125 7.98438 0.773438 8.33594C0.382813 8.72656 0.382813 9.3125 0.773438 9.66406L2.33594 11.2266C2.49219 11.4219 2.72656 11.5 2.96094 11.5C3.23438 11.5 3.46875 11.3828 3.625 11.2266L6.4375 8.10156C6.78906 7.71094 6.78906 7.125 6.39844 6.77344C6.04688 6.42188 5.46094 6.46094 5.10938 6.8125ZM5.10938 0.5625L2.96094 2.98438L2.0625 2.08594C1.71094 1.73438 1.125 1.73438 0.773438 2.08594C0.382813 2.47656 0.382813 3.0625 0.773438 3.41406L2.33594 4.97656C2.49219 5.17188 2.72656 5.25 2.96094 5.25C3.23438 5.25 3.46875 5.13281 3.625 4.97656L6.4375 1.85156C6.78906 1.46094 6.78906 0.875 6.39844 0.523438C6.04688 0.171875 5.46094 0.210937 5.10938 0.5625ZM2.375 13.375C1.32031 13.375 0.5 14.1953 0.5 15.25C0.5 16.2656 1.32031 17.125 2.375 17.125C3.39063 17.125 4.25 16.2656 4.25 15.25C4.25 14.2344 3.39063 13.375 2.375 13.375ZM10.5 4L19.25 4C19.9141 4 20.5 3.45312 20.5 2.75C20.5 2.08594 19.9141 1.5 19.25 1.5H10.5C9.79688 1.5 9.25 2.08594 9.25 2.75C9.25 3.45312 9.79688 4 10.5 4ZM19.25 7.75H10.5C9.79688 7.75 9.25 8.33594 9.25 9C9.25 9.70312 9.79688 10.25 10.5 10.25H19.25C19.9141 10.25 20.5 9.70312 20.5 9C20.5 8.33594 19.9141 7.75 19.25 7.75ZM19.25 14H8C7.29688 14 6.75 14.5859 6.75 15.25C6.75 15.9531 7.29688 16.5 8 16.5H19.25C19.9141 16.5 20.5 15.9531 20.5 15.25C20.5 14.5859 19.9141 14 19.25 14Z" fill="url(#paint0_linear_2270_5994)"/>
<defs>
<linearGradient id="paint0_linear_2270_5994" x1="0.5" y1="-1.5" x2="23.5637" y2="3.08327" gradientUnits="userSpaceOnUse">
<stop offset="0.0001" stop-color="#FFAD02"/>
</linearGradient>
</defs>
</svg>
