<svg width="26" height="18" viewBox="0 0 26 18" fill="none" xmlns="http://www.w3.org/2000/svg">
<path d="M1.27344 10.6016C1.42969 10.7969 1.66406 10.875 1.9375 10.875C2.17188 10.875 2.40625 10.7578 2.5625 10.6016L3.5 9.70312L4.39844 10.6016C4.55469 10.7969 4.78906 10.875 5.0625 10.875C5.29688 10.875 5.53125 10.7578 5.6875 10.6016C6.07812 10.2109 6.07812 9.625 5.6875 9.27344L4.78906 8.375L5.6875 7.47656C6.07812 7.08594 6.07812 6.5 5.6875 6.14844C5.33594 5.75781 4.75 5.75781 4.39844 6.14844L3.5 7.08594L2.5625 6.14844C2.21094 5.79688 1.625 5.79688 1.27344 6.14844C0.882813 6.53906 0.882813 7.125 1.27344 7.47656L2.17188 8.375L1.27344 9.27344C0.882813 9.66406 0.882813 10.25 1.27344 10.6016ZM6 13.375H1.9375C1.39063 13.375 1 13.7656 1 14.3125C1 14.8203 1.39063 15.25 1.9375 15.25H6C6 15.1328 6 15.0156 6 14.8984L6 13.375ZM25.0625 13.375H15.3359C15.1016 14 14.8672 14.625 14.5547 15.25H25.0625C25.5703 15.25 26 14.8203 26 14.3125C26 13.8047 25.5703 13.375 25.0625 13.375ZM25.0625 9H21.4688L22.1719 6.89062C22.3281 6.42187 22.2109 5.95312 21.8594 5.60156C21.5469 5.28906 21.0781 5.17187 20.6094 5.28906L15.7266 6.77344C15.8828 5.79688 15.9609 4.9375 15.9609 4.23438C16.0391 2.28125 14.6719 0.601562 12.8359 0.289062C11.7422 0.132812 10.6484 0.445312 9.78906 1.14844C8.96875 1.89062 8.5 2.90625 8.5 4V5.5625C8.5 6.07031 8.89062 6.5 9.4375 6.5H10.0625C10.5703 6.5 11 6.07031 11 5.5625V4C11 3.60938 11.1562 3.25781 11.4297 3.02344C11.7031 2.78906 12.0547 2.67188 12.4453 2.75C13.1484 2.86719 13.5 3.57031 13.4609 4.19531C13.4609 5.13281 13.3047 6.30469 13.0312 7.59375L9.28125 8.72656C8.07031 9.07812 7.25 10.2109 7.25 11.4609L7.25 14.7422C7.25 16.1875 8.22656 17.5156 9.67188 17.75C10.8047 17.9062 11.8984 17.3984 12.5234 16.4609C13.6562 14.7031 14.5547 12.0859 15.1797 9.58594L19.0469 8.41406L18.5391 9.85938C18.4219 10.25 18.5 10.6797 18.7344 10.9922C18.9688 11.3438 19.3203 11.5 19.75 11.5H25.0625C25.5703 11.5 26 11.0703 26 10.5625V9.9375C26 9.42969 25.5703 9 25.0625 9ZM10.4141 15.1328C10.2578 15.3672 9.71094 15.2109 9.75 14.8984V11.4609C9.75 11.3047 9.82812 11.1484 9.98438 11.1094L12.3672 10.4062C11.8203 12.2422 11.1562 14 10.4141 15.1328Z" fill="url(#paint0_linear_2270_11537)"/>
<defs>
<linearGradient id="paint0_linear_2270_11537" x1="1" y1="-1.5" x2="29.2264" y2="5.51152" gradientUnits="userSpaceOnUse">
<stop offset="0.0001" stop-color="#FFAD02"/>
</linearGradient>
</defs>
</svg>
