<svg width="26" height="20" viewBox="0 0 26 20" fill="none" xmlns="http://www.w3.org/2000/svg">
<path d="M16.75 6.875C16.75 3.08594 13.0781 0 8.625 0C4.13281 0 0.5 3.08594 0.5 6.875C0.5 8.4375 1.08594 9.84375 2.10156 11.0156C1.47656 12.3047 0.578125 13.2422 0.578125 13.2812C0.460938 13.3594 0.460938 13.4766 0.5 13.5938C0.539062 13.7109 0.65625 13.75 0.773438 13.75C2.29688 13.75 3.54688 13.3203 4.52344 12.8125C5.73438 13.4375 7.10156 13.75 8.625 13.75C13.0781 13.75 16.75 10.7031 16.75 6.875ZM8.625 11.25C8.07812 11.25 7.6875 10.8594 7.6875 10.3125C7.6875 9.76562 8.07812 9.375 8.625 9.375C9.17188 9.375 9.5625 9.76562 9.5625 10.3125C9.5625 10.8594 9.17188 11.25 8.625 11.25ZM10.6953 6.71875L9.32812 7.53906V7.61719C9.32812 8.00781 9.01562 8.32031 8.625 8.32031C8.23438 8.32031 7.92188 8.00781 7.92188 7.61719V7.14844C7.92188 6.875 8.03906 6.64062 8.27344 6.52344L9.95312 5.50781C10.1875 5.35156 10.3047 5.15625 10.3047 4.92188C10.3047 4.57031 9.99219 4.25781 9.64062 4.25781H8.07812C7.72656 4.25781 7.41406 4.57031 7.41406 4.92188C7.41406 5.3125 7.10156 5.625 6.71094 5.625C6.32031 5.625 6.00781 5.3125 6.00781 4.92188C6.00781 3.75 6.90625 2.8125 8.07812 2.8125H9.64062C10.8125 2.8125 11.75 3.75 11.75 4.92188C11.75 5.625 11.3594 6.32812 10.6953 6.71875ZM23.8984 17.3438C24.875 16.1719 25.5 14.7266 25.5 13.125C25.5 9.33594 22.1406 6.25 18 6.25C17.9609 6.25 17.9609 6.28906 17.9609 6.28906C17.9609 6.48438 18 6.67969 18 6.875C18 10.7422 14.875 13.9844 10.6953 14.8047C11.5156 17.8125 14.4453 20 18 20C19.2891 20 20.5391 19.6875 21.5938 19.1797C22.5703 19.6094 23.7812 20 25.1875 20C25.3047 20 25.4219 19.9609 25.4609 19.8438C25.5 19.7266 25.4609 19.6094 25.3828 19.5312C25.3828 19.4922 24.5234 18.5938 23.8984 17.3438ZM21.6719 12.4219L18.3906 15.8594C18.2344 16.0156 18.0391 16.0938 17.8438 16.0938C17.6094 16.0938 17.4141 16.0156 17.2578 15.8984L15.6953 14.3359C15.4219 14.0234 15.4219 13.5156 15.6953 13.2031C16.0078 12.9297 16.5156 12.9297 16.8281 13.2031L17.8047 14.2188L20.5391 11.3672C20.8516 11.0547 21.3203 11.0156 21.6328 11.3281C21.9453 11.6406 21.9844 12.1094 21.6719 12.4219Z" fill="url(#paint0_linear_2270_11579)"/>
<defs>
<linearGradient id="paint0_linear_2270_11579" x1="0.5" y1="-0.5" x2="28.7264" y2="6.51152" gradientUnits="userSpaceOnUse">
<stop offset="0.0001" stop-color="#FFAD02"/>
</linearGradient>
</defs>
</svg>
