<svg width="22" height="22" viewBox="0 0 22 22" fill="none" xmlns="http://www.w3.org/2000/svg">
<path d="M5.29688 9.90625C5.02344 9.67188 4.63281 9.67188 4.39844 9.90625L3.65625 10.6484C3.46094 10.8438 3.42188 11.1953 3.57812 11.4297L5.6875 14.5547L3.57812 16.6641L2.44531 16.0781C2.21094 15.9609 1.97656 16 1.82031 16.1953L1.15625 16.8594C0.921875 17.0547 0.921875 17.4062 1.15625 17.6016L4.35938 20.8438C4.59375 21.0781 4.94531 21.0781 5.14062 20.8438L5.80469 20.1797C6 20.0234 6.03906 19.75 5.92188 19.5547L5.33594 18.4219L7.44531 16.3125L10.5703 18.4219C10.8047 18.5781 11.1562 18.5391 11.3516 18.3438L12.0938 17.6016C12.3281 17.3672 12.3281 16.9766 12.0938 16.7031L5.29688 9.90625ZM20.2578 1.03906L16.5859 1.66406L7.67969 10.5703L11.4297 14.3203L20.3359 5.375L20.9609 1.74219C21.0391 1.3125 20.6875 0.960938 20.2578 1.03906Z" fill="url(#paint0_linear_2270_11593)"/>
<defs>
<linearGradient id="paint0_linear_2270_11593" x1="1" y1="0.5" x2="24.0637" y2="5.08327" gradientUnits="userSpaceOnUse">
<stop offset="0.0001" stop-color="#FFAD02"/>
</linearGradient>
</defs>
</svg>
